<svg width="10" height="10" viewBox="0 0 10 10" fill="none" xmlns="http://www.w3.org/2000/svg">
<g clip-path="url(#clip0_2202_52)">
<path d="M0.833252 6.04167C0.833252 7.0772 1.67272 7.91667 2.70825 7.91667H7.70825C8.51367 7.91667 9.16658 7.26375 9.16658 6.45834C9.16658 5.72364 8.62329 5.11584 7.91655 5.01477C7.92033 4.26341 7.63558 3.51088 7.06231 2.93761C5.92328 1.79858 4.07655 1.79858 2.93752 2.93761C2.5628 3.31233 2.31135 3.76366 2.18318 4.24118C1.40321 4.46826 0.833252 5.1884 0.833252 6.04167Z" stroke="black" stroke-width="0.833333" stroke-linejoin="round"/>
<path d="M5.83335 4.58333L5.00002 3.75M5.00002 3.75L4.16669 4.58333M5.00002 3.75L5.00002 6.25" stroke="black" stroke-width="0.833333" stroke-linecap="round" stroke-linejoin="round"/>
</g>
<defs>
<clipPath id="clip0_2202_52">
<rect width="10" height="10" fill="white"/>
</clipPath>
</defs>
</svg>
